<?xml version="1.0" encoding="UTF-8"?>
<svg id="Layer_1" data-name="Layer 1" xmlns="http://www.w3.org/2000/svg" viewBox="0 0 60 60">
  <defs>
    <style>
      .cls-1, .cls-2 {
        fill: #fff;
      }

      .cls-3 {
        fill: #ffc800;
      }

      .cls-2 {
        stroke: #fff;
        stroke-miterlimit: 10;
      }
    </style>
  </defs>
  <path class="cls-3" d="m59.36,30.71l-1.02,1.13c-.32.35-.36.87-.11,1.27l.81,1.29c.29.46.18,1.06-.25,1.4l-1.2.93c-.37.29-.51.8-.33,1.23l.58,1.41c.21.5,0,1.08-.49,1.33l-1.35.71c-.42.22-.64.69-.54,1.16l.32,1.49c.11.53-.19,1.06-.71,1.23l-1.45.46c-.45.14-.75.57-.73,1.05l.06,1.52c.02.54-.37,1.01-.91,1.09l-1.51.21c-.47.06-.84.43-.9.9l-.21,1.51c-.07.54-.54.93-1.09.91l-1.52-.06c-.47-.02-.9.28-1.05.73l-.46,1.45c-.17.52-.7.83-1.23.71l-1.49-.32c-.46-.1-.94.12-1.16.54l-.71,1.35c-.25.48-.83.69-1.33.49l-1.41-.58c-.44-.18-.94-.04-1.23.33l-.93,1.2c-.33.43-.94.54-1.4.25l-1.29-.81c-.4-.25-.92-.21-1.27.11l-1.13,1.02c-.4.36-1.02.36-1.42,0l-1.13-1.02c-.35-.32-.87-.36-1.27-.11l-1.29.81c-.46.29-1.06.18-1.4-.25l-.93-1.2c-.29-.37-.8-.51-1.23-.33l-1.41.58c-.5.21-1.08,0-1.33-.49l-.71-1.35c-.22-.42-.69-.64-1.16-.54l-1.49.32c-.53.11-1.06-.19-1.23-.71l-.46-1.45c-.14-.45-.57-.75-1.05-.73l-1.52.06c-.54.02-1.01-.37-1.09-.91l-.21-1.51c-.06-.47-.43-.84-.9-.9l-1.51-.21c-.54-.07-.93-.54-.91-1.09l.06-1.52c.02-.47-.28-.9-.73-1.05l-1.45-.46c-.52-.17-.83-.7-.71-1.23l.32-1.49c.1-.46-.12-.94-.54-1.16l-1.35-.71c-.48-.25-.69-.83-.49-1.33l.58-1.41c.18-.44.04-.94-.33-1.23l-1.2-.93c-.43-.33-.54-.94-.25-1.4l.81-1.29c.25-.4.21-.92-.11-1.27l-1.02-1.13c-.36-.4-.36-1.02,0-1.42l1.02-1.13c.32-.35.36-.87.11-1.27l-.81-1.29c-.29-.46-.18-1.06.25-1.4l1.2-.93c.37-.29.51-.8.33-1.23l-.58-1.41c-.21-.5,0-1.08.49-1.33l1.35-.71c.42-.22.64-.69.54-1.16l-.32-1.49c-.11-.53.19-1.06.71-1.23l1.45-.46c.45-.14.75-.57.73-1.05l-.06-1.52c-.02-.54.37-1.01.91-1.09l1.51-.21c.47-.06.84-.43.9-.9l.21-1.51c.07-.54.54-.93,1.09-.91l1.52.06c.47.02.9-.28,1.05-.73l.46-1.45c.17-.52.7-.83,1.23-.71l1.49.32c.46.1.94-.12,1.16-.54l.71-1.35c.25-.48.83-.69,1.33-.49l1.41.58c.44.18.94.04,1.23-.33l.93-1.2c.33-.43.94-.54,1.4-.25l1.29.81c.4.25.92.21,1.27-.11l1.13-1.02c.4-.36,1.02-.36,1.42,0l1.13,1.02c.35.32.87.36,1.27.11l1.29-.81c.46-.29,1.06-.18,1.4.25l.93,1.2c.29.37.8.51,1.23.33l1.41-.58c.5-.21,1.08,0,1.33.49l.71,1.35c.22.42.69.64,1.16.54l1.49-.32c.53-.11,1.06.19,1.23.71l.46,1.45c.14.45.57.75,1.05.73l1.52-.06c.54-.02,1.01.37,1.09.91l.21,1.51c.06.47.43.84.9.9l1.51.21c.54.07.93.54.91,1.09l-.06,1.52c-.02.47.28.9.73,1.05l1.45.46c.52.17.83.7.71,1.23l-.32,1.49c-.1.46.12.94.54,1.16l1.35.71c.48.25.69.83.49,1.33l-.58,1.41c-.18.44-.04.94.33,1.23l1.2.93c.43.33.54.94.25,1.4l-.81,1.29c-.25.4-.21.92.11,1.27l1.02,1.13c.36.4.36,1.02,0,1.42Z"/>
  <path class="cls-2" d="m30,55.31c-3.42,0-6.73-.67-9.85-1.99-3.01-1.27-5.72-3.1-8.04-5.42-2.32-2.32-4.15-5.03-5.42-8.04-1.32-3.12-1.99-6.43-1.99-9.85s.67-6.73,1.99-9.85c1.27-3.01,3.1-5.72,5.42-8.04,2.32-2.32,5.03-4.15,8.04-5.42,3.12-1.32,6.43-1.99,9.85-1.99s6.73.67,9.85,1.99c3.01,1.27,5.72,3.1,8.04,5.42,2.32,2.32,4.15,5.03,5.42,8.04,1.32,3.12,1.99,6.43,1.99,9.85s-.67,6.73-1.99,9.85c-1.27,3.01-3.1,5.72-5.42,8.04-2.32,2.32-5.03,4.15-8.04,5.42-3.12,1.32-6.43,1.99-9.85,1.99Zm0-49.96c-3.33,0-6.56.65-9.6,1.94-2.94,1.24-5.57,3.02-7.84,5.29-2.27,2.27-4.04,4.9-5.29,7.84-1.29,3.04-1.94,6.27-1.94,9.6s.65,6.56,1.94,9.6c1.24,2.94,3.02,5.57,5.29,7.84,2.27,2.27,4.9,4.04,7.84,5.29,3.04,1.29,6.27,1.94,9.6,1.94s6.56-.65,9.6-1.94c2.94-1.24,5.57-3.02,7.84-5.29,2.27-2.27,4.04-4.9,5.29-7.84,1.29-3.04,1.94-6.27,1.94-9.6s-.65-6.56-1.94-9.6c-1.24-2.94-3.02-5.57-5.29-7.84-2.27-2.27-4.9-4.04-7.84-5.29-3.04-1.29-6.27-1.94-9.6-1.94Z"/>
  <g>
    <path class="cls-1" d="m11.35,28.21h-.16c-1.96,0-2.19-.89-2.19-1.39v-.06h1.26c.02.19.1.6.99.6h.04c.87,0,.99-.26.99-.5s-.16-.41-.86-.43l-.56-.02c-1.37-.04-1.81-.59-1.81-1.22v-.05c0-.65.35-1.24,2.08-1.24h.19c1.85,0,2.11.68,2.11,1.23v.06h-1.24c-.03-.19-.13-.46-.94-.46h-.06c-.74,0-.92.14-.92.37,0,.21.15.37.81.4l.58.02c1.49.06,1.85.55,1.85,1.23v.07c0,.61-.28,1.4-2.16,1.4Z"/>
    <path class="cls-1" d="m16.96,23.88c1.96,0,2.52,1.15,2.52,2.07v.17c0,.9-.56,2.09-2.52,2.09h-.25c-1.96,0-2.52-1.19-2.52-2.09v-.17c0-.91.56-2.07,2.52-2.07h.25Zm-.12.96c-1.17,0-1.44.64-1.44,1.15v.08c0,.51.28,1.17,1.44,1.17s1.44-.66,1.44-1.17v-.08c0-.52-.25-1.15-1.44-1.15Z"/>
    <path class="cls-1" d="m19.93,23.95h4.4v.96h-1.62v3.23h-1.15v-3.23h-1.62v-.96Z"/>
    <path class="cls-1" d="m25.08,26.08v-2.13h1.16v2.1c0,.48.14,1.17,1.2,1.17h.03c1.07,0,1.19-.69,1.19-1.17v-2.1h1.15v2.13c0,.84-.3,2.12-2.28,2.12h-.16c-2.05,0-2.29-1.29-2.29-2.12Z"/>
    <path class="cls-1" d="m33.84,28.14h-1.53l-1.94-4.19h1.35l1.36,3.18,1.37-3.18h1.26l-1.88,4.19Z"/>
    <path class="cls-1" d="m37.47,23.95v3.2h2.56v.99h-3.72v-4.19h1.16Z"/>
    <path class="cls-1" d="m44.17,27.36h-2.26l-.34.78h-1.17l1.86-4.19h1.55l1.94,4.19h-1.25l-.34-.78Zm-.39-.86l-.76-1.71-.74,1.71h1.5Z"/>
    <path class="cls-1" d="m50.96,27.21v.43c0,.32.03.4.07.47v.03h-1.2s-.04-.11-.04-.29v-.34c0-.54-.2-.79-.78-.79h-1.51v1.42h-1.16v-4.19h2.82c1.59,0,1.77.66,1.77,1.12v.06c0,.52-.36.88-.88,1,.57.13.91.47.91,1.09Zm-3.46-1.45h1.62c.47,0,.6-.2.6-.44h0c0-.25-.13-.44-.6-.44h-1.62v.89Z"/>
    <path class="cls-1" d="m25.33,34.76l-1.22,1.36h-1.36l1.85-2.13-1.82-2.06h1.47l1.14,1.3,1.13-1.3h1.33l-1.76,2.05,1.84,2.14h-1.4l-1.2-1.36Z"/>
    <path class="cls-1" d="m29.67,36.12h-1.16v-4.19h1.16v4.19Z"/>
    <path class="cls-1" d="m30.45,31.93h4.4v.96h-1.62v3.23h-1.15v-3.23h-1.62v-.96Z"/>
    <path class="cls-1" d="m36.78,36.12h-1.16v-4.19h1.16v4.19Z"/>
  </g>
</svg>